<svg xmlns="http://www.w3.org/2000/svg" width="29.25" height="20.25"><g data-name="Icon ionic-ios-mail" fill="#fff"><path data-name="Path 1" d="m29.011 2.482-7.566 7.706a.136.136 0 0 0 0 .2l5.295 5.637a.912.912 0 0 1 0 1.294.917.917 0 0 1-1.294 0l-5.273-5.618a.144.144 0 0 0-.2 0l-1.287 1.308a5.661 5.661 0 0 1-4.036 1.7 5.775 5.775 0 0 1-4.12-1.751l-1.238-1.259a.144.144 0 0 0-.2 0l-5.281 5.619a.917.917 0 0 1-1.294 0 .912.912 0 0 1 0-1.294l5.295-5.639a.15.15 0 0 0 0-.2L.239 2.482a.139.139 0 0 0-.239.1v15.42a2.257 2.257 0 0 0 2.25 2.25H27a2.257 2.257 0 0 0 2.25-2.25V2.58a.141.141 0 0 0-.239-.098Z"/><path data-name="Path 2" d="M14.625 12.874a3.823 3.823 0 0 0 2.749-1.149L28.406.492A2.21 2.21 0 0 0 27.014 0H2.243A2.2 2.2 0 0 0 .851.492l11.032 11.233a3.823 3.823 0 0 0 2.742 1.149Z"/></g></svg>